<svg width="56" height="56" viewBox="0 0 56 56" fill="none" xmlns="http://www.w3.org/2000/svg">
<circle cx="27" cy="27" r="27" fill="#F1F2F4"/>
<g clip-path="url(#clip0_16175_1027)">
<path fill-rule="evenodd" clip-rule="evenodd" d="M46.9988 16.2051C47.0058 16.6162 46.4064 17.1786 46.1881 17.3542C45.8393 17.636 45.3993 17.8704 44.9373 18.0621C44.0735 18.4213 42.9925 18.6257 42.0397 18.5183C41.9103 18.5045 41.7175 18.4548 41.6101 18.4583C41.5616 19.2043 41.4149 19.6444 40.6653 20.0058C40.2276 20.2172 39.6317 20.2888 39.1316 20.2126C39.0081 20.1941 38.7216 20.1017 38.65 20.1109C38.4237 22.0766 36.2502 22.333 35.0063 21.6308C34.8169 21.5234 34.6483 21.3652 34.5074 21.2947C34.4243 21.5014 34.303 22.4669 33.6643 22.7626C33.2636 22.9474 32.6653 22.9508 32.2311 22.8099C32.0867 22.7626 31.9412 22.6598 31.8269 22.6402C31.5948 22.8758 31.4666 23.034 31.0635 23.1195C30.4098 23.2604 29.6129 23.0097 28.9951 22.7995C28.7075 22.7025 28.301 22.6159 28.0123 22.5178L28.1451 16.7779C28.6255 16.764 28.8334 16.8564 29.1625 16.4788C29.3854 16.2247 29.4744 15.8216 29.628 15.4729C30.3648 13.7971 32.6088 14.8931 33.6793 15.3597C36.0942 16.4118 41.3745 16.1635 44.2178 16.1658C45.1325 16.1669 46.0957 16.1415 46.9988 16.2051ZM6.99998 16.2051C6.99421 16.6162 7.5936 17.1786 7.81072 17.3542C8.16066 17.636 8.60067 17.8704 9.06263 18.0621C9.9265 18.4213 11.0075 18.6257 11.9603 18.5183C12.0885 18.5045 12.2813 18.4548 12.3899 18.4583C12.4373 19.2043 12.5851 19.6444 13.3346 20.0058C13.7723 20.2172 14.3682 20.2888 14.8672 20.2126C14.9919 20.1941 15.2783 20.1017 15.3499 20.1109C15.5763 22.0766 17.7498 22.333 18.9936 21.6308C19.183 21.5234 19.3516 21.3652 19.4914 21.2947C19.5757 21.5014 19.697 22.4669 20.3356 22.7626C20.7364 22.9474 21.3335 22.9508 21.7689 22.8099C21.9132 22.7626 22.0576 22.6598 22.1731 22.6402C22.4041 22.8758 22.5334 23.034 22.9365 23.1206C23.5901 23.2604 24.387 23.0097 25.0049 22.7995C25.2925 22.7025 25.699 22.6159 25.9877 22.5178L25.8537 16.7779C25.3745 16.764 25.1666 16.8564 24.8363 16.4788C24.6145 16.2247 24.5256 15.8216 24.372 15.4729C23.6352 13.7982 21.3912 14.8931 20.3206 15.3597C17.9057 16.4106 12.6255 16.1635 9.78214 16.1658C8.86746 16.1669 7.90427 16.1415 6.99998 16.2051Z" fill="#FF7069"/>
<path fill-rule="evenodd" clip-rule="evenodd" d="M8.75427 17.9272C8.8559 17.9745 8.95869 18.0195 9.06263 18.0623C9.9265 18.4215 11.0075 18.6259 11.9603 18.5185C12.0885 18.5046 12.2813 18.4549 12.3899 18.4584C12.3899 18.4584 17.5719 18.2505 20.7999 16.6487C19.8621 17.0575 12.1474 18.7945 8.75427 17.9272ZM12.987 19.8039C13.0863 19.8743 13.2006 19.9413 13.3346 20.006C13.7723 20.2173 14.3682 20.2889 14.8672 20.2127C14.9919 20.1942 15.2783 20.1018 15.3499 20.1111C15.3499 20.1111 18.8135 19.5198 21.8578 17.6003C21.8578 17.6003 16.7681 20.088 12.987 19.8039ZM16.2149 21.6032C17.0187 22.1368 18.1967 22.0813 18.9936 21.6309C19.183 21.5235 19.3516 21.3653 19.4914 21.2948C19.4914 21.2948 21.3115 20.5245 22.6801 18.5924C22.6801 18.5924 18.7615 22.3493 16.2149 21.6032ZM21.4871 22.8782C21.5852 22.8609 21.6799 22.839 21.7689 22.8101C21.9132 22.7627 22.0576 22.6599 22.1731 22.6403C22.1731 22.6403 23.0693 21.4912 22.702 20.2566C22.702 20.2566 22.5911 22.1114 21.4871 22.8782Z" fill="#F7635B"/>
<path fill-rule="evenodd" clip-rule="evenodd" d="M25.6135 12.5337L26.355 46.1852C26.5686 46.1921 26.7834 46.1968 26.9994 46.1968C27.2154 46.1968 27.4302 46.1921 27.645 46.1852L28.3853 12.5337C29.0967 12.0764 29.5679 11.2795 29.5679 10.3706C29.5679 8.95235 28.4176 7.80322 26.9994 7.80322C25.5812 7.80322 24.4321 8.95235 24.4321 10.3706C24.4321 11.2795 24.9033 12.0764 25.6135 12.5337ZM26.9994 9.17409C27.5699 9.17409 28.0319 9.63605 28.0319 10.2054C28.0319 10.7759 27.5699 11.2367 26.9994 11.2367C26.43 11.2367 25.9681 10.7759 25.9681 10.2054C25.9681 9.63605 26.43 9.17409 26.9994 9.17409Z" fill="#F2F2F2"/>
<path fill-rule="evenodd" clip-rule="evenodd" d="M28.3853 12.5337C28.3853 12.5337 28.1035 12.6365 27.6485 12.7543L27.675 44.8305L28.3853 12.5337Z" fill="#B9C1C9"/>
<path fill-rule="evenodd" clip-rule="evenodd" d="M26.1736 43.9851C26.6587 44.6885 28.8334 45.0003 29.7642 46.0062C28.8611 46.131 27.9383 46.1968 26.9994 46.1968C26.7014 46.1968 26.4058 46.1899 26.1113 46.1772C25.2694 45.8365 24.4667 45.3618 24.2369 44.5152C23.7391 42.3891 24.9021 41.546 26.2268 40.9847L26.2741 42.9619C25.9993 43.2148 25.9265 43.5359 26.1736 43.9851ZM27.7882 40.3865C28.5874 40.0608 29.1995 39.6855 29.1972 38.9763C29.1949 38.2488 28.7225 37.9427 28.2363 37.6759C26.1829 36.4633 21.5621 36.3801 22.4006 31.4499C22.866 29.8549 24.2634 29.1955 25.9277 28.8559L25.9946 31.5677C25.4183 31.7998 25.0095 32.107 24.8848 32.5308C24.3212 34.463 27.578 35.0173 28.7098 35.4989C29.8174 35.9701 31.3245 36.7832 31.8026 37.9392C32.7219 41.0817 29.7585 41.6811 27.7408 42.299L27.7882 40.3865ZM28.0792 28.5568C30.2735 28.3362 32.4609 28.2173 33.3883 27.0381C33.7717 26.5519 33.0742 25.5414 32.0359 26.2713C32.0047 26.2932 28.2779 27.9644 28.8149 26.0634C28.8807 25.8313 29.2307 25.2099 29.3566 25.0251C30.3532 23.5757 33.0476 23.5884 34.4404 24.3541C37.1533 25.8463 35.7097 29.796 32.4078 30.2811C31.3903 30.6541 29.6002 30.7927 28.0169 31.0583L28.0792 28.5568Z" fill="#75BD80"/>
<path fill-rule="evenodd" clip-rule="evenodd" d="M29.8324 25.4155C29.8959 24.8484 30.3636 24.7549 30.4271 24.9189C30.5322 25.1903 30.0668 25.3751 29.8324 25.4155Z" fill="white"/>
<path fill-rule="evenodd" clip-rule="evenodd" d="M28.1266 43.9851C28.0342 44.118 27.8829 44.2369 27.6912 44.3489L27.6785 44.8328C28.219 45.0511 28.8045 45.2856 29.2734 45.5985C29.6476 45.3202 29.9386 44.9726 30.0634 44.5152C31.0843 40.1463 25.095 41.1938 25.1019 38.9763C25.1042 38.2488 25.5777 37.9427 26.0628 37.6759L26.1436 37.6286L26.124 36.8063C25.5512 36.5972 24.9645 36.3674 24.4274 36.0683C23.6075 36.5372 22.8187 37.1597 22.4964 37.9392C21.0239 42.9688 29.4974 41.4848 28.1266 43.9851ZM26.1113 46.1772C25.5685 46.1529 25.0326 46.1079 24.5025 46.042C24.6469 45.8769 24.8259 45.7302 25.0257 45.5974C25.3444 45.8341 25.7244 46.0201 26.1113 46.1772ZM29.8705 36.0683C31.276 35.2876 32.3385 34.0357 31.8985 31.4499C30.6639 27.2229 22.8972 29.5639 20.9108 27.0381C20.5273 26.5519 21.2249 25.5414 22.2643 26.2713C22.2955 26.2932 26.0224 27.9644 25.4842 26.0634C25.4183 25.8313 25.0684 25.2099 24.9425 25.0251C23.9458 23.5757 21.2515 23.5884 19.8586 24.3541C17.1458 25.8463 18.5894 29.796 21.8901 30.2811C23.8996 31.0168 28.9212 30.8412 29.4143 32.5308C29.718 33.5714 28.9131 34.2124 27.9291 34.657L27.9152 35.2206C28.2271 35.3211 28.5031 35.4112 28.7098 35.4989C29.0713 35.6525 29.4744 35.8419 29.8705 36.0683Z" fill="#83CF8F"/>
<path fill-rule="evenodd" clip-rule="evenodd" d="M24.4667 25.4155C24.4032 24.8484 23.9355 24.7549 23.8719 24.9189C23.7668 25.1903 24.2323 25.3751 24.4667 25.4155Z" fill="white"/>
<path fill-rule="evenodd" clip-rule="evenodd" d="M28.4523 22.645L28.2259 22.5837L28.3737 16.7769C28.4707 16.7781 28.5551 16.7804 28.6347 16.7734L28.4523 22.645ZM25.7764 22.6011L25.5685 22.6403L25.3652 16.7769C25.4622 16.7781 25.55 16.7503 25.6285 16.7434L25.7764 22.6011Z" fill="#ED4C54"/>
<path fill-rule="evenodd" clip-rule="evenodd" d="M45.2445 17.9272C45.144 17.9745 45.0413 18.0195 44.9373 18.0623C44.0735 18.4215 42.9925 18.6259 42.0397 18.5185C41.9103 18.5046 41.7175 18.4549 41.61 18.4584C41.61 18.4584 36.428 18.2505 33.1989 16.6487C34.1378 17.0575 41.8526 18.7945 45.2445 17.9272ZM41.0118 19.8039C40.9136 19.8743 40.7993 19.9413 40.6653 20.006C40.2276 20.2173 39.6317 20.2889 39.1328 20.2127C39.0081 20.1942 38.7216 20.1018 38.65 20.1111C38.65 20.1111 35.1865 19.5198 32.141 17.6003C32.141 17.6003 37.2318 20.088 41.0118 19.8039ZM37.785 21.6032C36.9812 22.1368 35.8032 22.0813 35.0063 21.6309C34.8169 21.5235 34.6483 21.3653 34.5074 21.2948C34.5074 21.2948 32.6884 20.5245 31.3199 18.5924C31.3199 18.5924 35.2385 22.3493 37.785 21.6032ZM32.5129 22.8782C32.4147 22.8609 32.32 22.839 32.2311 22.8101C32.0867 22.7627 31.9412 22.6599 31.8269 22.6403C31.8269 22.6403 30.9307 21.4912 31.2979 20.2566C31.2979 20.2566 31.4088 22.1114 32.5129 22.8782Z" fill="#F7635B"/>
<path fill-rule="evenodd" clip-rule="evenodd" d="M25.5465 27.0149L26.3342 27.2967L25.7163 27.1962L26.0709 27.7563L25.1931 26.9075L25.3675 26.8093L25.5465 27.0149ZM28.7583 27.0149L27.9707 27.2967L28.5886 27.1962L28.234 27.7563L29.1117 26.9075L28.9373 26.8093L28.7583 27.0149Z" fill="#FEFEFE"/>
</g>
<defs>
<clipPath id="clip0_16175_1027">
<rect width="40" height="40" fill="white" transform="translate(7 7)"/>
</clipPath>
</defs>
</svg>
