<svg width="24" height="24" viewBox="0 0 24 24" fill="none" xmlns="http://www.w3.org/2000/svg">
<g clip-path="url(#clip0_1_1134)">
<path d="M19.68 19.3373L18.4116 24C9.42844 23.4516 0 19.0627 0 15.4627C0 15.1955 0.058125 14.8852 0.173906 14.4272C0.174844 14.4225 0.17625 14.4183 0.177188 14.4136L1.26844 10.3884C2.05734 7.44 6.78844 6.51422 13.2684 7.33734L12 12C7.51734 11.4605 3.99937 11.737 1.97344 12.6909C4.38188 15.7064 12.0956 18.7936 19.68 19.3373Z" fill="#0A65CC"/>
<path d="M24 8.53734C24 8.94844 23.8627 9.46266 23.5884 10.4573L22.7316 13.6116C21.9427 16.56 17.2116 17.4858 10.7316 16.6627L12 12C16.485 12.54 20.003 12.2653 22.0284 11.3114C19.6219 8.295 11.9063 5.20641 4.32001 4.66266L5.58844 0C14.5716 0.548437 24 4.93734 24 8.53734Z" fill="#0A65CC"/>
</g>
<defs>
<clipPath id="clip0_1_1134">
<rect width="24" height="24" fill="white"/>
</clipPath>
</defs>
</svg>
