<svg width="18" height="18" viewBox="0 0 18 18" fill="none" xmlns="http://www.w3.org/2000/svg">
<path fill-rule="evenodd" clip-rule="evenodd" d="M15.75 13.0155V14.25C15.75 15.0784 15.0784 15.75 14.25 15.75C7.62258 15.75 2.25 10.3774 2.25 3.75C2.25 2.92157 2.92157 2.25 3.75 2.25H4.98445C5.59781 2.25 6.14937 2.62343 6.37717 3.19291L6.98741 4.71852C7.27714 5.44285 6.96328 6.26836 6.26551 6.61724L6 6.75C6 6.75 6.375 8.625 7.875 10.125C9.375 11.625 11.25 12 11.25 12L11.3828 11.7345C11.7316 11.0367 12.5571 10.7229 13.2815 11.0126L14.8071 11.6228C15.3766 11.8506 15.75 12.4022 15.75 13.0155ZM13.5 8.0625C13.8107 8.0625 14.0625 7.81066 14.0625 7.5C14.0625 7.18934 13.8107 6.9375 13.5 6.9375L12 6.9375C11.955 6.9375 11.9107 6.93432 11.8673 6.92818L15.3977 3.39775C15.6174 3.17808 15.6174 2.82192 15.3977 2.60225C15.1781 2.38258 14.8219 2.38258 14.6023 2.60225L11.0718 6.13269C11.0657 6.08934 11.0625 6.04504 11.0625 6V4.5C11.0625 4.18934 10.8107 3.9375 10.5 3.9375C10.1893 3.9375 9.9375 4.18934 9.9375 4.5V6C9.9375 7.13909 10.8609 8.0625 12 8.0625L13.5 8.0625Z" fill="white"/>
</svg>
