<svg width="14" height="14" viewBox="0 0 14 14" fill="none" xmlns="http://www.w3.org/2000/svg">
<path fill-rule="evenodd" clip-rule="evenodd" d="M11.9499 13.3641C12.3404 13.7546 12.9736 13.7546 13.3641 13.3641C13.7546 12.9736 13.7546 12.3404 13.3641 11.9499L8.41436 7.00014L13.3641 2.05043C13.7546 1.6599 13.7546 1.02674 13.3641 0.636214C12.9736 0.245689 12.3404 0.245689 11.9499 0.636214L7.00015 5.58593L2.05038 0.636155C1.65986 0.24563 1.02669 0.245631 0.636167 0.636155C0.245642 1.02668 0.245642 1.65984 0.636167 2.05037L5.58594 7.00014L0.636155 11.9499C0.24563 12.3404 0.245631 12.9736 0.636155 13.3641C1.02668 13.7547 1.65984 13.7547 2.05037 13.3641L7.00015 8.41435L11.9499 13.3641Z" fill="#18191C"/>
</svg>
