<svg width="32" height="32" viewBox="0 0 32 32" fill="none" xmlns="http://www.w3.org/2000/svg">
<path d="M18.9334 3.8335C17.2979 3.8335 15.7294 4.4832 14.5729 5.63967C13.4164 6.79614 12.7667 8.36466 12.7667 10.0002V13.4335H9.46675C9.30141 13.4335 9.16675 13.5668 9.16675 13.7335V18.2668C9.16675 18.4322 9.30008 18.5668 9.46675 18.5668H12.7667V27.8668C12.7667 28.0322 12.9001 28.1668 13.0667 28.1668H17.6001C17.7654 28.1668 17.9001 28.0335 17.9001 27.8668V18.5668H21.2294C21.3667 18.5668 21.4867 18.4735 21.5201 18.3402L22.6534 13.8068C22.6646 13.7626 22.6655 13.7164 22.6561 13.6718C22.6467 13.6271 22.6273 13.5852 22.5992 13.5492C22.5712 13.5132 22.5353 13.4841 22.4944 13.464C22.4534 13.444 22.4084 13.4335 22.3627 13.4335H17.9001V10.0002C17.9001 9.86446 17.9268 9.73009 17.9787 9.60472C18.0307 9.47935 18.1068 9.36544 18.2027 9.26948C18.2987 9.17353 18.4126 9.09742 18.538 9.04549C18.6633 8.99356 18.7977 8.96683 18.9334 8.96683H22.4001C22.5654 8.96683 22.7001 8.8335 22.7001 8.66683V4.1335C22.7001 3.96816 22.5667 3.8335 22.4001 3.8335H18.9334Z" fill="white"/>
</svg>
