<svg width="32" height="32" viewBox="0 0 32 32" fill="none" xmlns="http://www.w3.org/2000/svg">
<path fill-rule="evenodd" clip-rule="evenodd" d="M4 6.66699V25.3337C4 27.5428 5.79086 29.3337 8 29.3337H15.6765C15.898 29.3337 16.1176 29.3153 16.3333 29.2794V24.0003C16.3333 20.5025 19.1689 17.667 22.6667 17.667H27.9457C27.9816 17.4513 28 17.2317 28 17.0101V6.66699C28 4.45785 26.2091 2.66699 24 2.66699H8C5.79086 2.66699 4 4.45785 4 6.66699ZM18.5049 28.1621C18.4492 28.2178 18.3919 28.2718 18.3333 28.3238V24.0003C18.3333 21.6071 20.2734 19.667 22.6667 19.667H26.9902C26.9381 19.7256 26.8842 19.7828 26.8284 19.8386L18.5049 28.1621ZM14.8215 10.593C14.8781 10.5364 14.9378 10.4847 15 10.4379V16.0002C15 16.5525 15.4477 17.0002 16 17.0002C16.5523 17.0002 17 16.5525 17 16.0002V10.4379C17.0622 10.4847 17.1219 10.5364 17.1785 10.593L19.2929 12.7074C19.6834 13.0979 20.3166 13.0979 20.7071 12.7074C21.0976 12.3168 21.0976 11.6837 20.7071 11.2931L18.5927 9.17876C17.1608 7.74684 14.8392 7.74684 13.4073 9.17876L11.2929 11.2931C10.9024 11.6837 10.9024 12.3168 11.2929 12.7074C11.6834 13.0979 12.3166 13.0979 12.7071 12.7074L14.8215 10.593Z" fill="white"/>
</svg>
