<svg width="74" height="46" viewBox="0 0 74 46" fill="none" xmlns="http://www.w3.org/2000/svg">
<path fill-rule="evenodd" clip-rule="evenodd" d="M26.1444 45.4632H20.6251C20.4868 45.4645 20.3496 45.4384 20.2214 45.3864C20.0932 45.3344 19.9766 45.2575 19.8783 45.1602C19.78 45.0628 19.7019 44.9469 19.6487 44.8193C19.5954 44.6916 19.568 44.5546 19.568 44.4163V40.3505C17.5109 39.8975 15.5497 39.0855 13.7744 37.9517L10.8877 40.8181C10.7922 40.9152 10.6783 40.9923 10.5526 41.045C10.427 41.0976 10.2921 41.1247 10.1559 41.1247C10.0196 41.1247 9.88478 41.0976 9.75914 41.045C9.63349 40.9923 9.51958 40.9152 9.42404 40.8181L5.55144 36.9556C5.36888 36.7629 5.26391 36.5095 5.25667 36.2441C5.25667 36.0104 5.37864 35.7156 5.55144 35.5428L8.42794 32.6663C7.25976 30.8752 6.42314 28.8887 5.95801 26.8015H1.91261C1.77341 26.8028 1.63534 26.7764 1.50648 26.7238C1.37761 26.6711 1.26054 26.5933 1.16211 26.4949C1.06368 26.3965 0.985862 26.2794 0.933219 26.1505C0.880576 26.0217 0.85416 25.8836 0.855519 25.7444V20.2252C0.855519 19.6458 1.32308 19.1782 1.91261 19.1782H5.95801C6.43573 17.125 7.24888 15.1227 8.42794 13.3033L5.55144 10.4369C5.36888 10.2442 5.26391 9.9908 5.25667 9.72542C5.25667 9.43065 5.37864 9.19687 5.55144 9.02408L9.41388 5.16163C9.83062 4.7449 10.4811 4.7449 10.8877 5.16163L13.7642 8.02797C15.5836 6.84891 17.525 6.09675 19.568 5.61903V1.57363C19.568 0.9841 20.0458 0.516541 20.6251 0.516541H26.1444C26.7339 0.516541 27.2014 0.9841 27.2014 1.57363V5.61903C29.2546 6.08659 31.1859 6.84891 33.0053 8.02797L35.8818 5.15147C36.2884 4.7449 36.9389 4.7449 37.3454 5.15147L41.218 9.02408C41.4035 9.21582 41.512 9.46904 41.523 9.73558C41.522 9.86699 41.4945 9.99685 41.4421 10.1174C41.3897 10.2379 41.3135 10.3466 41.218 10.4369L38.3517 13.3642C39.5206 15.1938 40.3439 17.125 40.8115 19.2291H44.8569C45.4464 19.2291 45.914 19.7068 45.914 20.2862V25.8054C45.9153 25.9446 45.8889 26.0826 45.8363 26.2115C45.7836 26.3404 45.7058 26.4574 45.6074 26.5559C45.5089 26.6543 45.3919 26.7321 45.263 26.7848C45.1341 26.8374 44.9961 26.8638 44.8569 26.8625H40.7505C40.2776 28.9455 39.4453 30.9302 38.2907 32.7273L41.1672 35.6038C41.34 35.7766 41.4518 36.0713 41.4518 36.3051C41.4518 36.5389 41.34 36.8337 41.1672 37.0166L37.2946 40.8791C37.1989 40.9777 37.0844 41.0562 36.9578 41.1098C36.8312 41.1633 36.6952 41.1909 36.5577 41.1909C36.4202 41.1909 36.2842 41.1633 36.1576 41.1098C36.031 41.0562 35.9165 40.9777 35.8208 40.8791L32.9545 38.0026C31.1249 39.1816 29.1937 39.9338 27.1405 40.4115V44.4569C27.1405 44.9855 26.7339 45.4632 26.1444 45.4632ZM21.6314 43.41H25.0873V39.5475C25.0873 39.019 25.443 38.6023 25.9716 38.5413C28.3094 38.1347 30.5455 37.2504 32.4767 35.8477C32.6691 35.7073 32.9058 35.6413 33.1431 35.6618C33.3804 35.6824 33.6022 35.7881 33.7676 35.9595L36.5323 38.7242L38.9921 36.2543L36.2375 33.4998C36.0635 33.3236 35.9562 33.0924 35.9339 32.8457C35.9117 32.5991 35.9759 32.3524 36.1156 32.1479C37.5284 30.1557 38.4635 27.9297 38.8701 25.5818C38.9116 25.3416 39.0341 25.1229 39.2172 24.9621C39.4003 24.8012 39.6329 24.7078 39.8764 24.6975H43.7388V21.2416H39.8764C39.6268 21.253 39.3826 21.1672 39.1949 21.0023C39.0073 20.8374 38.8909 20.6062 38.8701 20.3573C38.4787 17.9848 37.539 15.7365 36.1257 13.7912C35.8208 13.3846 35.8818 12.8459 36.2274 12.4393L38.9921 9.68476L36.5831 7.27582L33.8387 10.0303C33.4728 10.3861 32.8935 10.4369 32.5377 10.1523C30.5992 8.77531 28.376 7.85134 26.0325 7.44861C25.794 7.40745 25.5766 7.28644 25.4159 7.10544C25.2553 6.92445 25.1609 6.69421 25.1483 6.45251V2.59006H21.6924V6.45251C21.7011 6.70033 21.6141 6.942 21.4495 7.12744C21.2849 7.31288 21.0552 7.42788 20.8081 7.44861C18.4601 7.85518 16.2341 8.73948 14.2928 10.1523C14.0992 10.2915 13.8618 10.3558 13.6244 10.3334C13.3871 10.311 13.1659 10.2033 13.0019 10.0303L10.2474 7.27582L7.83841 9.68476L10.5929 12.4291C10.9487 12.7849 10.9995 13.3744 10.7149 13.7912C9.30207 15.7834 8.36695 18.0093 7.96038 20.3573C7.91922 20.5958 7.79821 20.8132 7.61721 20.9739C7.43622 21.1346 7.20598 21.229 6.96428 21.2416H3.09167V24.6975H6.95411C7.48266 24.6975 7.8994 25.0532 7.96038 25.5818C8.36695 27.9196 9.25125 30.1557 10.7047 32.1479C11.0097 32.5545 10.9487 33.0932 10.6031 33.4998L7.83841 36.2543L10.2474 38.6632L13.0019 35.9087C13.3576 35.553 13.937 35.5021 14.2928 35.7867C16.285 37.1996 18.4601 38.0737 20.7979 38.4905C21.0364 38.5316 21.2539 38.6526 21.4145 38.8336C21.5752 39.0146 21.6696 39.2449 21.6822 39.4866V43.41H21.6314Z" fill="white"/>
<path fill-rule="evenodd" clip-rule="evenodd" d="M23.3901 34.8516C20.2404 34.8543 17.2181 33.6085 14.9852 31.387C12.7523 29.1656 11.491 26.1497 11.4775 23C11.6044 19.9337 12.9117 17.0352 15.1262 14.9104C17.3406 12.7857 20.2907 11.5993 23.3596 11.5993C26.4285 11.5993 29.3786 12.7857 31.5931 14.9104C33.8075 17.0352 35.1149 19.9337 35.2417 23C35.2417 29.5661 29.8953 34.8516 23.3901 34.8516ZM23.3901 13.2016C20.7858 13.2015 18.2872 14.2319 16.44 16.0677C14.5927 17.9036 13.5468 20.3957 13.5307 23C13.5307 25.6068 14.5663 28.1068 16.4096 29.9501C18.2528 31.7933 20.7528 32.8289 23.3596 32.8289C25.9664 32.8289 28.4664 31.7933 30.3097 29.9501C32.153 28.1068 33.1885 25.6068 33.1885 23C33.1832 20.4029 32.1491 17.9138 30.3127 16.0774C28.4763 14.241 25.9872 13.207 23.3901 13.2016Z" fill="white"/>
<path fill-rule="evenodd" clip-rule="evenodd" d="M31.4807 31.1518C31.3348 31.1554 31.19 31.1251 31.0578 31.0634C30.9255 31.0017 30.8093 30.9102 30.7183 30.796C29.7994 29.7561 28.6721 28.921 27.4096 28.3449C26.1471 27.7688 24.7776 27.4646 23.3899 27.452C21.9897 27.4578 20.6066 27.7597 19.3313 28.3377C18.0561 28.9158 16.9175 29.757 15.9902 30.8062C15.6447 31.2128 14.9941 31.2738 14.5266 30.857C14.12 30.5114 14.059 29.8609 14.4656 29.3934C15.5804 28.1238 16.9529 27.1064 18.4917 26.4088C20.0306 25.7113 21.7003 25.3496 23.3899 25.348C26.7848 25.348 30.017 26.8116 32.243 29.3934C32.417 29.6011 32.5072 29.8663 32.4959 30.137C32.4846 30.4077 32.3727 30.6645 32.182 30.857C32.0092 31.0908 31.7145 31.1518 31.4807 31.1518ZM23.3899 24.2299C22.3763 24.1419 21.4325 23.677 20.7449 22.9271C20.0574 22.1772 19.6759 21.1968 19.6759 20.1794C19.6759 19.162 20.0574 18.1816 20.7449 17.4317C21.4325 16.6818 22.3763 16.2169 23.3899 16.1289C24.4035 16.2169 25.3472 16.6818 26.0348 17.4317C26.7224 18.1816 27.1038 19.162 27.1038 20.1794C27.1038 21.1968 26.7224 22.1772 26.0348 22.9271C25.3472 23.677 24.4035 24.1419 23.3899 24.2299ZM23.3899 18.1821C23.1262 18.1794 22.8646 18.2293 22.6204 18.329C22.3762 18.4287 22.1544 18.576 21.9679 18.7625C21.7814 18.949 21.634 19.1708 21.5344 19.415C21.4347 19.6592 21.3848 19.9208 21.3875 20.1845C21.3875 21.3026 22.2718 22.1767 23.3899 22.1767C24.508 22.1767 25.3821 21.2924 25.3821 20.1845C25.3848 19.9216 25.3352 19.6609 25.2361 19.4174C25.1371 19.1739 24.9906 18.9525 24.8052 18.7662C24.6198 18.5798 24.3992 18.4322 24.1562 18.332C23.9132 18.2317 23.6527 18.1807 23.3899 18.1821ZM59.9916 45.4632H56.4849C56.3466 45.4645 56.2093 45.4384 56.0811 45.3864C55.9529 45.3344 55.8363 45.2575 55.738 45.1601C55.6397 45.0628 55.5617 44.9469 55.5085 44.8192C55.4552 44.6915 55.4278 44.5546 55.4278 44.4162V42.1191C54.2592 41.8201 53.1349 41.369 52.0838 40.7774L50.4473 42.4139C50.3516 42.5125 50.2371 42.591 50.1105 42.6445C49.9839 42.6981 49.8478 42.7257 49.7104 42.7257C49.5729 42.7257 49.4369 42.6981 49.3103 42.6445C49.1837 42.591 49.0692 42.5125 48.9735 42.4139L46.5137 39.9541C46.4166 39.8586 46.3395 39.7446 46.2868 39.619C46.2342 39.4934 46.2071 39.3585 46.2071 39.2223C46.2071 39.086 46.2342 38.9512 46.2868 38.8255C46.3395 38.6999 46.4166 38.586 46.5137 38.4904L48.1502 36.8438C47.5143 35.8144 47.0605 34.6832 46.8085 33.4997H44.5215C44.3823 33.5011 44.2442 33.4747 44.1154 33.422C43.9865 33.3694 43.8694 33.2916 43.771 33.1932C43.6726 33.0947 43.5948 32.9777 43.5421 32.8488C43.4895 32.7199 43.4631 32.5818 43.4644 32.4427V28.9258C43.4644 28.3363 43.932 27.8687 44.5215 27.8687H46.8085C47.1032 26.6896 47.5708 25.5207 48.1502 24.5145L46.5747 22.939C46.4776 22.8435 46.4005 22.7296 46.3478 22.6039C46.2952 22.4783 46.268 22.3434 46.268 22.2072C46.268 22.0709 46.2952 21.9361 46.3478 21.8104C46.4005 21.6848 46.4776 21.5709 46.5747 21.4753L49.0345 18.9444C49.2287 18.7656 49.4819 18.6643 49.746 18.6598C50.0306 18.6598 50.2643 18.7716 50.4473 18.9546L52.0838 20.5911C53.1409 19.9507 54.2589 19.473 55.438 19.1884V16.8404C55.438 16.2509 55.8954 15.7833 56.4849 15.7833H60.0018C60.5913 15.7833 61.0589 16.2509 61.0589 16.8404V19.1782C62.2379 19.4831 63.3458 19.9507 64.4131 20.6012L65.9886 18.9546C66.1798 18.7683 66.4333 18.6597 66.7001 18.6497C66.9846 18.6497 67.2184 18.7716 67.4014 18.9546L69.9221 21.4753C70.1024 21.6655 70.2072 21.9148 70.2169 22.1767C70.2173 22.3098 70.1905 22.4416 70.138 22.564C70.0856 22.6863 70.0086 22.7967 69.912 22.8882L68.3365 24.5145C68.987 25.5817 69.4546 26.6896 69.7493 27.8687H72.0871C72.6767 27.8687 73.1442 28.3363 73.1442 28.9258V32.4427C73.1456 32.5818 73.1192 32.7199 73.0665 32.8488C73.0139 32.9777 72.9361 33.0947 72.8376 33.1932C72.7392 33.2916 72.6221 33.3694 72.4933 33.422C72.3644 33.4747 72.2263 33.5011 72.0871 33.4997H69.7493C69.4409 34.6763 68.9651 35.8025 68.3365 36.8438L69.9831 38.4904C70.1597 38.6821 70.2608 38.9313 70.2677 39.1918C70.2708 39.3234 70.2471 39.4543 70.1982 39.5766C70.1493 39.6989 70.0761 39.81 69.9831 39.9033L67.4522 42.363C67.3567 42.4601 67.2428 42.5373 67.1171 42.5899C66.9915 42.6426 66.8566 42.6697 66.7204 42.6697C66.5841 42.6697 66.4493 42.6426 66.3236 42.5899C66.198 42.5373 66.0841 42.4601 65.9886 42.363L64.4029 40.7774C63.3566 41.379 62.2309 41.8306 61.0589 42.1191V44.4162C61.0589 44.5546 61.0314 44.6915 60.9782 44.8192C60.9249 44.9469 60.8469 45.0628 60.7486 45.1601C60.6503 45.2575 60.5337 45.3344 60.4055 45.3864C60.2773 45.4384 60.1401 45.4645 60.0018 45.4632H59.9916ZM57.4708 43.41H58.9447V41.3059C58.9447 40.8282 59.2903 40.3607 59.7578 40.3098C61.2825 40.0049 62.6953 39.4255 63.8642 38.6022C64.2708 38.3075 64.8095 38.3685 65.2161 38.7242L66.6797 40.1879L67.7368 39.1308L66.2122 37.6061C66.0397 37.4287 65.9343 37.1968 65.9139 36.9502C65.8935 36.7037 65.9594 36.4576 66.1004 36.2543C66.964 35.0511 67.5443 33.6681 67.7978 32.2089C67.8296 31.9663 67.9478 31.7433 68.1308 31.5808C68.3138 31.4184 68.5492 31.3274 68.7939 31.3246H70.9081V29.8609H68.7939C68.5477 29.8698 68.3074 29.7842 68.1222 29.6217C67.937 29.4592 67.821 29.2321 67.7978 28.9868C67.5362 27.508 66.9571 26.1036 66.1004 24.8702C65.962 24.6678 65.8976 24.4239 65.918 24.1795C65.9384 23.9352 66.0422 23.7053 66.2122 23.5285L67.7368 22.0547L66.6797 21.0078L65.2161 22.5324C65.0386 22.7049 64.8068 22.8103 64.5602 22.8307C64.3136 22.8511 64.0676 22.7852 63.8642 22.6442C62.6447 21.7692 61.2392 21.1882 59.7578 20.9468C59.5171 20.9128 59.2965 20.7936 59.1361 20.6108C58.9757 20.428 58.8862 20.1938 58.8837 19.9507V17.8365H57.3997V19.9507C57.4086 20.1969 57.323 20.4372 57.1605 20.6224C56.998 20.8076 56.7708 20.9236 56.5256 20.9468C55.0663 21.2003 53.6834 21.7806 52.4802 22.6442C52.0736 22.939 51.5349 22.878 51.1283 22.5324L49.6037 21.0078L48.6584 22.1767L50.1322 23.6403C50.4778 23.9961 50.5388 24.5856 50.244 24.9922C49.4309 26.1611 48.8413 27.5739 48.5466 29.0986C48.4856 29.5661 48.018 29.9117 47.5505 29.9117H45.4363V31.3856H47.5505C48.018 31.3856 48.4856 31.7413 48.5466 32.2089C48.8413 33.7335 49.3597 35.0854 50.244 36.2543C50.3844 36.4467 50.4505 36.6834 50.4299 36.9207C50.4094 37.1579 50.3036 37.3798 50.1322 37.5451L48.6584 39.0698L49.7155 40.1269L51.2401 38.6632C51.4042 38.4903 51.6254 38.3826 51.8627 38.3602C52.1 38.3378 52.3374 38.4021 52.531 38.5413C53.7101 39.3646 55.1127 39.9541 56.5866 40.2489C57.0541 40.3098 57.3997 40.7774 57.3997 41.245V43.41H57.4708Z" fill="white"/>
<path fill-rule="evenodd" clip-rule="evenodd" d="M58.2329 38.6633C57.1838 38.6619 56.1451 38.454 55.1764 38.0512C54.2076 37.6485 53.3276 37.0589 52.5867 36.3161C51.8458 35.5733 51.2584 34.6918 50.8582 33.722C50.4579 32.7522 50.2526 31.7131 50.2539 30.6639C50.2552 29.6148 50.4632 28.5762 50.8659 27.6074C51.2687 26.6386 51.8583 25.7586 52.6011 25.0177C53.3439 24.2768 54.2253 23.6894 55.1951 23.2892C56.1649 22.8889 57.2041 22.6836 58.2532 22.6849C60.3721 22.6876 62.4031 23.5319 63.8994 25.0321C65.3958 26.5323 66.2349 28.5654 66.2322 30.6843C66.2295 32.8031 65.3852 34.8341 63.8851 36.3305C62.3849 37.8268 60.3518 38.6659 58.2329 38.6633ZM58.2329 24.6975C57.454 24.6948 56.6822 24.8462 55.962 25.1431C55.2419 25.4399 54.5875 25.8763 54.0367 26.4271C53.4859 26.9779 53.0496 27.6322 52.7527 28.3524C52.4559 29.0726 52.3044 29.8443 52.3071 30.6233C52.3071 33.9064 54.9498 36.5491 58.2329 36.5491C61.516 36.5491 64.1587 33.9064 64.1587 30.6843C64.1627 29.9021 64.0126 29.1267 63.717 28.4026C63.4214 27.6784 62.986 27.0195 62.4357 26.4636C61.8855 25.9076 61.2311 25.4655 60.51 25.1625C59.7889 24.8595 59.0151 24.7015 58.2329 24.6975Z" fill="white"/>
</svg>
