<svg width="32" height="32" viewBox="0 0 32 32" fill="none" xmlns="http://www.w3.org/2000/svg">
<path fill-rule="evenodd" clip-rule="evenodd" d="M16.0493 29.3305C12.4542 29.2787 9.02277 27.8191 6.49199 25.2652C5.25503 24.0174 4.27963 22.5351 3.62299 20.9054C2.96634 19.2757 2.64166 17.5313 2.66799 15.7745C2.75119 12.2674 4.22009 8.936 6.75332 6.50917C9.31824 4.05177 12.7305 2.67578 16.2826 2.6665H16.5173C19.7773 2.68268 22.9169 3.89981 25.336 6.08517L21.9427 9.17317C20.4253 7.82446 18.4648 7.08124 16.4347 7.08517C14.0542 7.07644 11.7631 7.99069 10.0427 9.63584C9.20123 10.44 8.52714 11.4025 8.05919 12.4682C7.59124 13.5338 7.33865 14.6815 7.31599 15.8452C7.29714 17.0086 7.50922 18.1642 7.93995 19.2452C8.37067 20.3261 9.01149 21.3109 9.82532 22.1425C11.4895 23.8424 13.7475 24.8316 16.1253 24.9025H16.316C18.196 24.9985 20.0493 24.4305 21.5386 23.3025C23.0207 22.1858 24.0493 20.5711 24.4347 18.7558L24.492 18.5998H16.2933V14.0532H29.1973C29.2978 14.8772 29.3422 15.7034 29.3306 16.5318C29.1986 24.1865 23.9746 29.3318 16.336 29.3318L16.0493 29.3305Z" fill="white"/>
</svg>
