<svg width="32" height="32" viewBox="0 0 32 32" fill="none" xmlns="http://www.w3.org/2000/svg">
<path d="M29.3334 18.667L25.4147 15.8455C23.3784 14.3794 20.5956 14.531 18.7306 16.2095L13.2695 21.1245C11.4044 22.803 8.62162 22.9545 6.58536 21.4884L2.66669 18.667M8.00002 29.3337H24C26.9455 29.3337 29.3334 26.9458 29.3334 24.0003V8.00033C29.3334 5.05481 26.9455 2.66699 24 2.66699H8.00002C5.0545 2.66699 2.66669 5.05481 2.66669 8.00032V24.0003C2.66669 26.9458 5.0545 29.3337 8.00002 29.3337ZM14.6667 11.3337C14.6667 13.1746 13.1743 14.667 11.3334 14.667C9.4924 14.667 8.00002 13.1746 8.00002 11.3337C8.00002 9.49271 9.4924 8.00033 11.3334 8.00033C13.1743 8.00033 14.6667 9.49271 14.6667 11.3337Z" stroke="#9199A3" stroke-width="1.5" stroke-linecap="round"/>
</svg>
