<svg width="96" height="96" viewBox="0 0 96 96" fill="none" xmlns="http://www.w3.org/2000/svg">
<path d="M87.2989 55.4952C87.7592 53.0673 88 50.5618 88 48C88 25.9086 70.0914 8 48 8C25.9086 8 8 25.9086 8 48C8 50.9807 8.32603 53.8853 8.94436 56.6799M87.2989 55.4952C83.7903 74.004 67.5296 88 48 88C28.8893 88 12.9088 74.598 8.94436 56.6799M87.2989 55.4952L76.244 47.5357C70.1352 43.1374 61.7868 43.5919 56.1917 48.6275L39.8083 63.3725C34.2133 68.4081 25.8648 68.8626 19.756 64.4643L8.94436 56.6799M44 36C44 40.4183 40.4183 44 36 44C31.5817 44 28 40.4183 28 36C28 31.5817 31.5817 28 36 28C40.4183 28 44 31.5817 44 36Z" stroke="#9199A3" stroke-width="1.5"/>
</svg>
