<svg width="32" height="32" viewBox="0 0 32 32" fill="none" xmlns="http://www.w3.org/2000/svg">
<path fill-rule="evenodd" clip-rule="evenodd" d="M12.5718 11.9585H17.5238V14.4252C18.2372 13.0065 20.0665 11.7318 22.8145 11.7318C28.0825 11.7318 29.3332 14.5558 29.3332 19.7372V29.3332H23.9998V20.9172C23.9998 17.9665 23.2865 16.3025 21.4705 16.3025C18.9518 16.3025 17.9052 18.0958 17.9052 20.9158V29.3332H12.5718V11.9585ZM3.4265 29.1065H8.75984V11.7318H3.4265V29.1065ZM9.52384 6.0665C9.52403 6.51354 9.43538 6.95615 9.26302 7.36862C9.09066 7.78109 8.83804 8.15519 8.51984 8.46917C7.87504 9.11 7.00225 9.46871 6.09317 9.4665C5.18569 9.46589 4.31492 9.1081 3.66917 8.4705C3.35212 8.15545 3.10035 7.78094 2.9283 7.36841C2.75624 6.95589 2.66728 6.51347 2.6665 6.0665C2.6665 5.16384 3.0265 4.29984 3.6705 3.6625C4.31568 3.02405 5.18682 2.6661 6.0945 2.6665C7.00384 2.6665 7.87584 3.02517 8.51984 3.6625C9.1625 4.29984 9.52384 5.16384 9.52384 6.0665Z" fill="white"/>
</svg>
