<svg width="32" height="32" viewBox="0 0 32 32" fill="none" xmlns="http://www.w3.org/2000/svg">
<path fill-rule="evenodd" clip-rule="evenodd" d="M4 25.3337V6.66699C4 4.45785 5.79086 2.66699 8 2.66699H24C26.2091 2.66699 28 4.45785 28 6.66699V17.0101C28 17.2317 27.9816 17.4513 27.9457 17.667H22.6667C19.1689 17.667 16.3333 20.5025 16.3333 24.0003V29.2794C16.1176 29.3153 15.898 29.3337 15.6765 29.3337H8C5.79086 29.3337 4 27.5428 4 25.3337ZM18.3333 28.3238C18.3919 28.2718 18.4492 28.2178 18.5049 28.1621L26.8284 19.8386C26.8842 19.7828 26.9381 19.7256 26.9902 19.667H22.6667C20.2734 19.667 18.3333 21.6071 18.3333 24.0003V28.3238Z" fill="#0A65CC"/>
</svg>
